# xmcd
#
# Track frame offsets:
#	150
#	10696
#	25646
#	44467
#	63013
#	86412
#	106584
#	128766
#	141242
#	157288
#	173619
#
# Disc length: 2554 seconds
#
# Revision: 0
# Processed by: cddbd v1.5.2PL0 Copyright (c) Steve Scherf et al.
# Submitted via: audiograbber 1.83.01
#
DISCID=7d09f80b
DTITLE=Black, Steve - All The Best
DYEAR=2012
DGENRE=Country
TTITLE0=Come On Home
TTITLE1=Down but Not Out
TTITLE2=Lately
TTITLE3=Chicago
TTITLE4=Children of the Rodeo
TTITLE5=I Think I love You Tonight
TTITLE6=Miss You So
TTITLE7=You Think Youre Lonely
TTITLE8=Blink Of An Eye
TTITLE9=Jesse James
TTITLE10=Killing Fields
EXTD=
EXTT0=
EXTT1=
EXTT2=
EXTT3=
EXTT4=
EXTT5=
EXTT6=
EXTT7=
EXTT8=
EXTT9=
EXTT10=
PLAYORDER=
